<?xml version="1.0" encoding="UTF-8" standalone="no"?>
<svg
   xmlns:dc="http://purl.org/dc/elements/1.1/"
   xmlns:cc="http://creativecommons.org/ns#"
   xmlns:rdf="http://www.w3.org/1999/02/22-rdf-syntax-ns#"
   xmlns:svg="http://www.w3.org/2000/svg"
   xmlns="http://www.w3.org/2000/svg"
   version="1.1"
   id="svg2"
   height="1411.5852"
   width="1000">
  <metadata
     id="metadata29">
    <rdf:RDF>
      <cc:Work
         rdf:about="">
        <dc:format>image/svg+xml</dc:format>
        <dc:type
           rdf:resource="http://purl.org/dc/dcmitype/StillImage" />
        <dc:title>Slice 1</dc:title>
      </cc:Work>
    </rdf:RDF>
  </metadata>
  <defs
     id="defs27" />
  <title
     id="title4">Slice 1</title>
  <g
     style="fill:none"
     transform="matrix(3.3619096,0,0,3.3619096,-0.23869558,-0.4538578)"
     id="g6">
    <path
       style="fill:#131313"
       id="Shape"
       d="m 233.164,15.681 -24.688,0 25.674,27.859 0,13.261 -52.882,0 0,-15.526 25.669,0 -25.669,-27.86 0,-13.28 51.896,0 0,15.546 z m -62.378,0 -24.688,0 25.673,27.859 0,13.261 -52.882,0 0,-15.526 25.672,0 -25.672,-27.86 0,-13.28 51.897,0 0,15.546 z m -61.768,0.631 -26.64,0 0,24.313 26.64,0 0,16.176 -45.574,0 0,-56.666 45.574,0 0,16.177 z m 0,0" />
    <path
       style="fill:#1572b6"
       id="path9"
       d="M 27.142,386.29 0.071,82.67 l 297.45,0 -27.096,303.571 -121.811,33.77 L 27.142,386.29 Z m 0,0" />
    <path
       style="fill:#33a9dc"
       id="path11"
       d="m 148.798,394.199 98.427,-27.288 23.157,-259.415 -121.584,0 0,286.703 z m 0,0" />
    <g
       id="g13">
      <path
         style="fill:#ffffff"
         id="path15"
         d="m 148.797,217.496 49.275,0 3.403,-38.132 -52.678,0 0,-37.239 93.375,0 -0.893,9.991 -9.152,102.616 -83.33,0 0,-37.236 z m 0,0" />
      <path
         style="fill:#ebebeb"
         id="path17"
         d="m 149.02,314.204 -0.163,0.046 -41.472,-11.199 -2.652,-29.698 -37.379,0 5.216,58.467 76.278,21.176 0.172,-0.048 0,-38.744 z m 0,0" />
      <path
         style="fill:#ffffff"
         id="path19"
         d="m 194.907,253.156 -4.484,49.87 -41.532,11.21 0,38.742 76.339,-21.158 0.56,-6.29 6.478,-72.374 -37.361,0 z m 0,0" />
      <path
         style="fill:#ebebeb"
         id="path21"
         d="m 148.926,142.125 0,37.239 -89.947,0 -0.747,-8.37 -1.697,-18.878 -0.89,-9.991 93.281,0 z m 0,0" />
      <path
         style="fill:#ebebeb"
         id="path23"
         d="m 148.797,217.5 0,37.238 -40.947,0 -0.746,-8.369 -1.698,-18.878 -0.89,-9.991 44.281,0 z m 0,0" />
    </g>
  </g>
</svg>
