<?xml version="1.0" encoding="utf-8"?>
<!-- Generator: Adobe Illustrator 19.0.0, SVG Export Plug-In . SVG Version: 6.00 Build 0)  -->
<svg version="1.1"
	 id="Layer_1" xmlns:rdf="http://www.w3.org/1999/02/22-rdf-syntax-ns#" xmlns:dc="http://purl.org/dc/elements/1.1/" xmlns:cc="http://creativecommons.org/ns#"
	 xmlns="http://www.w3.org/2000/svg" xmlns:xlink="http://www.w3.org/1999/xlink" x="0px" y="0px" viewBox="-467 269 24 24"
	 style="enable-background:new -467 269 24 24;" xml:space="preserve">
<style type="text/css">
	.st0{fill:#141C23;}
	.st1{fill:#2176AA;}
	.st2{fill:#203899;}
	.st3{fill:#34495E;}
	.st4{fill:#1B2730;}
	.st5{fill:#1D2933;}
</style>
<g transform="translate(0 -1028.4)">
	<path class="st0" d="M-448,1309.4v2v8v2h-1h-0.5c-0.8,0-1.5-0.7-1.5-1.5v-2v-0.5v-2v-2v-0.5v-2c0-0.9,0.7-1.5,1.5-1.5h0.5H-448z"/>
	<path class="st1" d="M-447,1310.4c0.6,0,1,0.4,1,1v2v4v2c0,0.5-0.4,1-1,1h-1v-2v-6v-2H-447z"/>
	<rect x="-449" y="1309.4" class="st2" width="2" height="12"/>
	<path class="st1" d="M-463,1310.4c-0.6,0-1,0.4-1,1v2v4v2c0,0.6,0.4,1,1,1h1v-2v-6v-2H-463z"/>
	<path class="st0" d="M-462,1309.4v2v8v2h1h0.5c0.8,0,1.5-0.7,1.5-1.5v-2v-0.5v-2v-2v-0.5v-2c0-0.9-0.7-1.5-1.5-1.5h-0.5H-462z"/>
	<path class="st3" d="M-455,1297.3c-6.1,0-11,4.9-11,11v1h1c0-4.6,3.1-8.4,7.3-9.6c0.2-0.1,0.5-0.1,0.7-0.2h0.2
		c0.3-0.1,0.5-0.1,0.8-0.1c0.3-0.1,0.7-0.1,1-0.1c0.4,0,0.7,0,1,0.1c0.3,0,0.5,0,0.8,0.1c0.3,0,0.6,0.1,0.9,0.2
		c4.2,1.2,7.3,5,7.3,9.6h1v-1C-444,1302.2-449,1297.3-455,1297.3L-455,1297.3z"/>
	<path class="st4" d="M-455,1298.3c-6.1,0-11,4.9-11,11h1c0-4.6,3.1-8.4,7.3-9.6c0.2-0.1,0.5-0.1,0.7-0.2h0.2
		c0.3-0.1,0.5-0.1,0.8-0.1c0.3-0.1,0.7-0.1,1-0.1s0.7,0,1,0.1c0.3,0,0.5,0,0.8,0.1c0.3,0,0.6,0.1,0.9,0.2c4.2,1.2,7.3,5,7.3,9.6h1
		C-444,1303.2-449,1298.3-455,1298.3z"/>
	<path class="st4" d="M-463.5,1309.9c0,0.8-0.7,1.5-1.5,1.5s-1.5-0.7-1.5-1.5s0.7-1.5,1.5-1.5S-463.5,1309.1-463.5,1309.9z"/>
	<path class="st5" d="M-465.6,1309.6l1.6,5.8c0.1,0.2,0.3,0.4,0.6,0.3c0.3-0.1,0.4-0.3,0.4-0.6l-1.6-5.8L-465.6,1309.6
		L-465.6,1309.6z"/>
	<path class="st4" d="M-446.5,1309.9c0,0.8,0.7,1.5,1.5,1.5s1.5-0.7,1.5-1.5s-0.7-1.5-1.5-1.5S-446.5,1309.1-446.5,1309.9z"/>
	<g>
		<path class="st5" d="M-444.4,1309.6l-1.6,5.8c-0.1,0.2-0.3,0.4-0.6,0.3c-0.3-0.1-0.4-0.3-0.4-0.6l1.6-5.8L-444.4,1309.6
			L-444.4,1309.6z"/>
		<path class="st5" d="M-464,1309.8c0,0.6-0.4,1-1,1s-1-0.4-1-1s0.4-1,1-1S-464,1309.2-464,1309.8z"/>
		<path class="st5" d="M-444,1309.8c0,0.6-0.4,1-1,1s-1-0.4-1-1s0.4-1,1-1S-444,1309.2-444,1309.8z"/>
	</g>
	<rect x="-463" y="1309.4" class="st2" width="2" height="12"/>
</g>
</svg>
