<?xml version="1.0" encoding="utf-8"?>
<!-- Generator: Adobe Illustrator 19.0.0, SVG Export Plug-In . SVG Version: 6.00 Build 0)  -->
<svg version="1.1" id="Layer_1" xmlns="http://www.w3.org/2000/svg" xmlns:xlink="http://www.w3.org/1999/xlink" x="0px" y="0px"
	 viewBox="-223 114.4 525 338" style="enable-background:new -223 114.4 525 338;" xml:space="preserve">
<style type="text/css">
	.st0{fill:#BCBEC0;}
	.st1{fill:#808285;}
	.st2{fill:#353C42;}
	.st3{fill:#304269;}
	.st4{fill:#A7A9AC;}
	.st5{fill:#D1D3D4;}
	.st6{fill:#435E8E;}
	.st7{opacity:0.1;}
</style>
<path class="st0" d="M297,415.4c0,0.4-0.8,1.1-2.1,2h-508.6c-0.8-0.6-1.3-1.2-1.2-1.6v-15.7l511.6-0.4
	C296.6,399.7,297,413.9,297,415.4z"/>
<path class="st1" d="M-12,399.7h112.9l-2.7,5.5c-0.8,1.6-2.9,2.9-4.6,2.9l-98,0c-1.8,0-3.9-1.3-4.7-2.9L-12,399.7z"/>
<path class="st2" d="M237.8,148.3v251.6h-393.3V148.3c0.2-9.7,6.6-13.8,14.7-13.8h364c0.4,0,0.8,0,1.2,0
	C231.9,135.1,237.8,141.1,237.8,148.3z"/>
<rect x="-135.2" y="156.7" class="st3" width="350.7" height="220.2"/>
<path class="st4" d="M294.9,417.4c-4.2,2.9-13.6,7.6-18.9,7.7c-2.1,0.2-471.1,0.2-471.8,0.1c-2.9-0.2-14.3-4.8-18-7.7H294.9
	L294.9,417.4z"/>
<path class="st5" d="M42.4,145.9c0,1.3-1.1,2.4-2.4,2.4c-1.3,0-2.4-1.1-2.4-2.4c0-1.3,1.1-2.4,2.4-2.4
	C41.3,143.5,42.4,144.6,42.4,145.9z"/>
<path class="st0" d="M296,416.5c0,0.4-0.8,1.1-2.1,2h-508.6c-0.8-0.6-1.3-1.2-1.2-1.6v-15.7l511.6-0.4
	C295.6,400.7,296,414.9,296,416.5z"/>
<path class="st1" d="M-13,400.7H99.9l-2.7,5.5c-0.8,1.6-2.9,2.9-4.6,2.9l-98,0c-1.8,0-3.9-1.3-4.7-2.9L-13,400.7z"/>
<path class="st2" d="M236.8,149.3v251.6h-393.3V149.3c0.2-9.7,6.6-13.8,14.7-13.8h364c0.4,0,0.8,0,1.2,0
	C230.9,136.2,236.8,142.1,236.8,149.3z"/>
<rect x="-136.2" y="157.8" class="st6" width="350.7" height="220.2"/>
<path class="st4" d="M293.9,418.5c-4.2,2.9-13.6,7.6-18.9,7.7c-2.1,0.2-471.1,0.2-471.8,0.1c-2.9-0.2-14.3-4.8-18-7.7H293.9
	L293.9,418.5z"/>
<path class="st5" d="M41.4,146.9c0,1.3-1.1,2.4-2.4,2.4c-1.3,0-2.4-1.1-2.4-2.4c0-1.3,1.1-2.4,2.4-2.4
	C40.3,144.5,41.4,145.6,41.4,146.9z"/>
<g class="st7">
	<path d="M236.8,400.9V149.3c0-7.2-5.9-13.2-13.5-13.7c-0.4,0-0.8,0-1.2,0h-364c-4.3,0-8,1.1-10.7,3.6l387.9,261.7H236.8z"/>
</g>
</svg>
