<?xml version="1.0" encoding="utf-8"?>
<!-- Generator: Adobe Illustrator 19.0.0, SVG Export Plug-In . SVG Version: 6.00 Build 0)  -->
<svg version="1.1" id="Layer_1" xmlns="http://www.w3.org/2000/svg" xmlns:xlink="http://www.w3.org/1999/xlink" x="0px" y="0px"
	 viewBox="-223 25 512 512" style="enable-background:new -223 25 512 512;" xml:space="preserve">
<style type="text/css">
	.st0{display:none;}
	.st1{display:inline;fill:#3498DB;}
	.st2{display:inline;fill:#FFFFFF;stroke:#000000;stroke-miterlimit:10;}
	.st3{display:none;fill:#3498DB;}
	.st4{fill:#2C3E50;}
	.st5{fill:#435E8E;}
	.st6{fill:#23323F;}
	.st7{fill:#34495E;}
	.st8{opacity:0.1;enable-background:new    ;}
</style>
<g id="Layer_1_1_" class="st0">
	<path id="XMLID_1_" class="st1" d="M-14,562h-352c-44,0-80-36-80-80V130c0-44,36-80,80-80h352c44,0,80,36,80,80v352
		C66,526,30,562-14,562z"/>
	<polyline id="XMLID_2_" class="st2" points="-103.9,350.6 -105,350.6 -105,350.6 	"/>
</g>
<g id="Layer_2">
	<rect id="XMLID_3_" x="-99.9" y="125" class="st3" width="153.2" height="294.8"/>
	<path id="XMLID_4_" class="st4" d="M93.6,447.1H-45.9c-11.5,0-21-9.4-21-21V137.4c0-11.5,9.5-21,21-21H93.6c11.5,0,21,9.5,21,21
		v288.6C114.6,437.6,105.1,447.1,93.6,447.1z"/>
	<rect id="XMLID_5_" x="-55.8" y="141.8" class="st5" width="160.1" height="261.8"/>
	<circle id="XMLID_6_" class="st6" cx="24.3" cy="425.3" r="13.9"/>
	<rect id="XMLID_7_" x="-0.6" y="127.9" class="st6" width="49.6" height="3.9"/>
	<rect id="XMLID_8_" x="63.5" y="114.9" class="st7" width="24.6" height="1.5"/>
	<rect id="XMLID_9_" x="-69.4" y="164.9" class="st7" width="2.5" height="12.9"/>
	<rect id="XMLID_10_" x="-69.4" y="199.3" class="st7" width="2.5" height="12.9"/>
	<circle id="XMLID_11_" class="st6" cx="75.4" cy="130.1" r="3.6"/>
</g>
<g id="Layer_4">
</g>
<g id="Layer_3">
	<path id="XMLID_15_" class="st8" d="M93.6,116.8H-45.9c-6.9,0-13.1,3.2-16.9,8.4L107.5,442c4.5-3.9,7.5-9.6,7.5-16V137.4
		C115,125.8,105.1,116.8,93.6,116.8z"/>
</g>
</svg>
