<?xml version="1.0" encoding="utf-8"?>
<!-- Generator: Adobe Illustrator 19.0.0, SVG Export Plug-In . SVG Version: 6.00 Build 0)  -->
<svg version="1.1" xmlns="http://www.w3.org/2000/svg" xmlns:xlink="http://www.w3.org/1999/xlink" x="0px" y="0px"
	 viewBox="-415 217 128 128" style="enable-background:new -415 217 128 128;" xml:space="preserve">
<style type="text/css">
	.st0{fill:#63C8E0;}
	.st1{fill:#77D1E0;}
	.st2{fill:#D2D2D6;}
	.st3{fill:#323235;}
	.st4{fill:#304269;}
	.st5{fill:#A6A6AD;}
	.st6{opacity:0.1;enable-background:new    ;}
	.st7{fill:#57575E;}
	.st8{fill:none;stroke:#FFFFFF;stroke-miterlimit:10;}
	.st9{fill:#FCFCFC;}
	.st10{opacity:0.1;}
</style>
<g id="Layer_1">
	<path class="st0" d="M-337.1,228.3c-9.4-0.9-19.4-0.9-29.9,0c-2.8,0-5.1,1.9-5.3,4.3c-0.4,8.9-0.7,18.4-3.2,18.7h47
		c-2.9-1.3-3-10.2-3.3-18.7C-331.9,230.3-334.3,228.3-337.1,228.3z"/>
	<path class="st1" d="M-366.9,333.7c9.4,0.9,19.4,0.9,29.9,0c2.8,0,5.1-1.9,5.3-4.3c0.5-8.9,0.8-18.4,3.3-18.7h-47
		c2.9,1.3,3,10.2,3.3,18.7C-372.1,331.7-369.7,333.7-366.9,333.7z"/>
	<path class="st2" d="M-324,303c0,4.4-3.6,8-8,8h-40c-4.4,0-8-3.6-8-8v-45c0-4.4,3.6-8,8-8h40c4.4,0,8,3.6,8,8V303z"/>
	<path class="st3" d="M-372,309.3c-3.3,0-6-2.7-6-6v-45c0-3.3,2.7-6,6-6h40c3.3,0,6,2.7,6,6v45c0,3.3-2.7,6-6,6H-372z"/>
	<rect x="-372" y="258.3" class="st4" width="40" height="45"/>
	<rect x="-325" y="282.6" class="st5" width="1.5" height="17.7"/>
	<path class="st5" d="M-323.9,274.3h-0.1c1.1,0,2-0.9,2-2v-8c0-1.1-0.9-2-2-2h0.1c-1.2,0-2.1,0.9-2.1,2.1v7.8
		C-326,273.4-325.1,274.3-323.9,274.3z"/>
	<path class="st6" d="M-325,272.2v-7.8c0-1.1-0.1-2.1,1.1-2.1c0,0,0,0-0.1,0h0.1c-1.2,0-2.1,0.9-2.1,2.1v7.8c0,1.2,0.9,2.1,2.1,2.1
		h-0.1c0,0,0,0,0.1,0C-325.1,274.3-325,273.4-325,272.2z"/>
	<g>
		<rect x="-324" y="267.8" class="st7" width="2" height="1"/>
	</g>
	<g>
		<rect x="-324" y="265.8" class="st7" width="2" height="1"/>
	</g>
	<g>
		<rect x="-324" y="263.8" class="st7" width="2" height="1"/>
	</g>
	<g>
		<rect x="-324" y="269.8" class="st7" width="2" height="1"/>
	</g>
	<g>
		<rect x="-324" y="271.8" class="st7" width="2" height="1"/>
	</g>
</g>
<g id="Layer_3">
	<circle class="st8" cx="-352" cy="280.5" r="17.1"/>
	<path class="st8" d="M-351.4,279.7"/>
	<path class="st8" d="M-357.6,268.6"/>
	<path class="st8" d="M-344.6,277.1"/>
	<path class="st8" d="M-351.4,279.7"/>
	<g>
		<path class="st9" d="M-361.2,283.7h-1.1v-6.2c-0.1,0.1-0.1,0.1-0.2,0.2s-0.1,0.1-0.2,0.2l-1.5,1.1v-1.1l2.3-1.7h0.7V283.7z"/>
		<path class="st9" d="M-353.9,281.5c0,0.3-0.1,0.7-0.2,0.9s-0.3,0.5-0.5,0.7s-0.5,0.3-0.8,0.5s-0.7,0.2-1.1,0.2c-0.3,0-0.7,0-1-0.1
			s-0.6-0.2-0.8-0.3v-1.1c0.1,0.1,0.3,0.2,0.4,0.3s0.3,0.1,0.5,0.2s0.3,0.1,0.5,0.1s0.3,0,0.4,0c0.5,0,0.9-0.1,1.1-0.4
			s0.4-0.6,0.4-1c0-0.2,0-0.4-0.1-0.5s-0.2-0.3-0.4-0.4s-0.4-0.2-0.6-0.2s-0.5-0.1-0.7-0.1h-0.6v-1h0.4c0.3,0,0.6,0,0.8-0.1
			s0.4-0.2,0.6-0.3s0.3-0.3,0.3-0.4s0.1-0.3,0.1-0.5c0-0.2,0-0.4-0.1-0.5s-0.1-0.3-0.2-0.3s-0.2-0.2-0.4-0.2s-0.3-0.1-0.5-0.1
			c-0.1,0-0.2,0-0.4,0s-0.3,0.1-0.4,0.1s-0.3,0.1-0.5,0.2s-0.3,0.2-0.4,0.2v-1c0.3-0.2,0.6-0.3,0.9-0.4s0.6-0.1,1-0.1
			c0.4,0,0.7,0,0.9,0.1s0.5,0.2,0.7,0.4s0.3,0.4,0.4,0.6s0.2,0.5,0.2,0.8c0,0.2,0,0.4-0.1,0.6s-0.2,0.4-0.3,0.5s-0.3,0.3-0.4,0.4
			s-0.4,0.2-0.6,0.3c0.3,0,0.5,0.1,0.7,0.2s0.4,0.2,0.5,0.4s0.3,0.3,0.3,0.5S-353.9,281.3-353.9,281.5z"/>
		<path class="st9" d="M-352.6,279.5c0-0.1,0-0.2,0.1-0.3s0.1-0.2,0.2-0.2s0.2-0.1,0.3-0.2s0.2-0.1,0.3-0.1c0.1,0,0.2,0,0.3,0.1
			s0.2,0.1,0.2,0.2s0.1,0.1,0.2,0.2s0.1,0.2,0.1,0.3c0,0.1,0,0.2-0.1,0.3s-0.1,0.2-0.2,0.2s-0.2,0.1-0.2,0.2s-0.2,0.1-0.3,0.1
			c-0.1,0-0.2,0-0.3-0.1s-0.2-0.1-0.3-0.2s-0.1-0.1-0.2-0.2S-352.6,279.6-352.6,279.5z M-352.6,283c0-0.1,0-0.2,0.1-0.3
			s0.1-0.2,0.2-0.2s0.2-0.1,0.3-0.2s0.2-0.1,0.3-0.1c0.1,0,0.2,0,0.3,0.1s0.2,0.1,0.2,0.2s0.1,0.1,0.2,0.2s0.1,0.2,0.1,0.3
			c0,0.1,0,0.2-0.1,0.3s-0.1,0.2-0.2,0.2s-0.2,0.1-0.2,0.2s-0.2,0.1-0.3,0.1c-0.1,0-0.2,0-0.3-0.1s-0.2-0.1-0.3-0.2
			s-0.1-0.1-0.2-0.2S-352.6,283.1-352.6,283z"/>
		<path class="st9" d="M-345.2,281.5c0,0.3-0.1,0.7-0.2,0.9s-0.3,0.5-0.5,0.7s-0.5,0.3-0.8,0.5s-0.7,0.2-1.1,0.2c-0.3,0-0.7,0-1-0.1
			s-0.6-0.2-0.8-0.3v-1.1c0.1,0.1,0.3,0.2,0.4,0.3s0.3,0.1,0.5,0.2s0.3,0.1,0.5,0.1s0.3,0,0.4,0c0.5,0,0.9-0.1,1.1-0.4
			s0.4-0.6,0.4-1c0-0.2,0-0.4-0.1-0.5s-0.2-0.3-0.4-0.4s-0.4-0.2-0.6-0.2s-0.5-0.1-0.7-0.1h-0.6v-1h0.4c0.3,0,0.6,0,0.8-0.1
			s0.4-0.2,0.6-0.3s0.3-0.3,0.3-0.4s0.1-0.3,0.1-0.5c0-0.2,0-0.4-0.1-0.5s-0.1-0.3-0.2-0.3s-0.2-0.2-0.4-0.2s-0.3-0.1-0.5-0.1
			c-0.1,0-0.2,0-0.4,0s-0.3,0.1-0.4,0.1s-0.3,0.1-0.5,0.2s-0.3,0.2-0.4,0.2v-1c0.3-0.2,0.6-0.3,0.9-0.4s0.6-0.1,1-0.1
			c0.4,0,0.7,0,0.9,0.1s0.5,0.2,0.7,0.4s0.3,0.4,0.4,0.6s0.2,0.5,0.2,0.8c0,0.2,0,0.4-0.1,0.6s-0.2,0.4-0.3,0.5s-0.3,0.3-0.4,0.4
			s-0.4,0.2-0.6,0.3c0.3,0,0.5,0.1,0.7,0.2s0.4,0.2,0.5,0.4s0.3,0.3,0.3,0.5S-345.2,281.3-345.2,281.5z"/>
		<path class="st9" d="M-338.8,276.4c-0.3,0.6-0.6,1.2-0.9,1.8s-0.6,1.2-0.9,1.8s-0.5,1.2-0.8,1.8c-0.2,0.6-0.5,1.2-0.7,1.9h-1.1
			v-0.3c0.1-0.3,0.2-0.7,0.4-1.1c0.1-0.4,0.3-0.8,0.5-1.1s0.4-0.8,0.5-1.2s0.4-0.8,0.6-1.1s0.4-0.7,0.5-1s0.3-0.6,0.5-0.8h-3.5v-1
			h4.7L-338.8,276.4z"/>
	</g>
</g>
<g id="Layer_2">
	<g class="st10">
		<path d="M-324,303.3v-45c0-4.4-3.6-8-8-8h-40c-2.3,0-4.5,1-5.9,2.6l51.4,56.2C-325,307.7-324,305.6-324,303.3z"/>
	</g>
</g>
</svg>
