<?xml version="1.0" encoding="utf-8"?>
<!-- Generator: Adobe Illustrator 19.0.0, SVG Export Plug-In . SVG Version: 6.00 Build 0)  -->
<svg version="1.1" xmlns="http://www.w3.org/2000/svg" xmlns:xlink="http://www.w3.org/1999/xlink" x="0px" y="0px"
	 viewBox="-415 217 128 128" style="enable-background:new -415 217 128 128;" xml:space="preserve">
<style type="text/css">
	.st0{fill:#3E3E42;}
	.st1{fill:#435E8E;}
	.st2{fill:#323235;}
	.st3{opacity:0.1;enable-background:new    ;}
	.st4{fill:#34495E;}
	.st5{opacity:0.1;}
</style>
<g id="Layer_1">
	<path class="st0" d="M-320,332h-62c-3.3,0-6-2.7-6-6v-90c0-3.3,2.7-6,6-6h62c3.3,0,6,2.7,6,6v90C-314,329.3-316.7,332-320,332z"/>
	<rect x="-383" y="244" class="st1" width="64" height="74"/>
	<circle class="st2" cx="-351" cy="325" r="4"/>
	<circle class="st3" cx="-351" cy="325" r="3.5"/>
	<path class="st2" d="M-342,238h-18c-0.6,0-1-0.4-1-1s0.4-1,1-1h18c0.6,0,1,0.4,1,1S-341.4,238-342,238z"/>
	<rect id="XMLID_9_" x="-388.6" y="242.5" class="st4" width="0.6" height="3.2"/>
	<rect id="XMLID_10_" x="-388.6" y="251.1" class="st4" width="0.6" height="3.2"/>
</g>
<g id="Layer_2">
	<g class="st5">
		<path d="M-314,326v-90c0-3.3-2.7-6-6-6h-62c-1.9,0-3.7,0.9-4.8,2.4l71.4,97.5C-314.5,328.8-314,327.4-314,326z"/>
	</g>
</g>
</svg>
