<?xml version="1.0" encoding="utf-8"?>
<!-- Generator: Adobe Illustrator 19.0.0, SVG Export Plug-In . SVG Version: 6.00 Build 0)  -->
<svg version="1.1" xmlns="http://www.w3.org/2000/svg" xmlns:xlink="http://www.w3.org/1999/xlink" x="0px" y="0px"
	 viewBox="0 0 512 512" style="enable-background:new 0 0 512 512;" xml:space="preserve">
<style type="text/css">
	.st0{fill:#3498DB;}
	.st1{fill:#FFFFFF;stroke:#000000;stroke-miterlimit:10;}
	.st2{display:none;fill:#3498DB;}
	.st3{fill:#2C3E50;}
	.st4{fill:#34495E;}
	.st5{fill:#23323F;}
	.st6{opacity:0.1;}
</style>
<g id="Layer_1">
	<path id="XMLID_1_" class="st0" d="M432,512H80c-44,0-80-36-80-80V80C0,36,36,0,80,0h352c44,0,80,36,80,80v352
		C512,476,476,512,432,512z"/>
	<polyline id="XMLID_2_" class="st1" points="342.1,300.6 341,300.6 341,300.6 	"/>
</g>
<g id="Layer_2">
	<rect id="XMLID_3_" x="142.1" y="94.2" class="st2" width="153.2" height="294.8"/>
	<path id="XMLID_4_" class="st3" d="M335.6,416.2H196.1c-11.5,0-21-9.4-21-21V106.6c0-11.5,9.5-21,21-21h139.5c11.5,0,21,9.5,21,21
		v288.6C356.6,406.8,347.1,416.2,335.6,416.2z"/>
	<rect id="XMLID_5_" x="186.2" y="111" class="st4" width="160.1" height="261.8"/>
	<circle id="XMLID_6_" class="st5" cx="266.3" cy="394.4" r="13.9"/>
	<rect id="XMLID_7_" x="241.4" y="97.1" class="st5" width="49.6" height="3.9"/>
	<rect id="XMLID_8_" x="305.5" y="84.1" class="st4" width="24.6" height="1.5"/>
	<rect id="XMLID_9_" x="172.6" y="134.1" class="st4" width="2.5" height="12.9"/>
	<rect id="XMLID_10_" x="172.6" y="168.5" class="st4" width="2.5" height="12.9"/>
	<circle id="XMLID_11_" class="st5" cx="317.4" cy="99.3" r="3.6"/>
</g>
<g id="Layer_4">
</g>
<g id="Layer_3">
	<path id="XMLID_15_" class="st6" d="M335.6,86H196.1c-6.9,0-13.1,3.2-16.9,8.4l170.3,316.8c4.5-3.9,7.5-9.6,7.5-16V106.6
		C357,95,347.1,86,335.6,86z"/>
</g>
</svg>
