<?xml version="1.0" encoding="utf-8"?>
<!-- Generator: Adobe Illustrator 19.0.0, SVG Export Plug-In . SVG Version: 6.00 Build 0)  -->
<svg version="1.1" id="Layer_1" xmlns="http://www.w3.org/2000/svg" xmlns:xlink="http://www.w3.org/1999/xlink" x="0px" y="0px"
	 viewBox="292 10.5 1543.4 541.5" style="enable-background:new 292 10.5 1543.4 541.5;" xml:space="preserve">
<style type="text/css">
	.st0{fill:#47A3E2;}
	.st1{fill:#0086BB;}
	.st2{fill:#1F5493;}
</style>
<g id="XMLID_2_">
	<path id="XMLID_4_" class="st0" d="M634.8,190.3c-0.8-3.9-1.6-7.7-2.4-11.6c-12.7-56.2-66.6-99.4-119.6-105.1c-0.1,0-0.2,0-0.3,0
		c-4.9-0.5-10.5-0.6-15.8-0.5v18.1c63.9,1.1,113.7,52.4,113.7,116c-1.7,70.6-52,113.5-113.7,114v168.1c3.9-5.3,7.6-10.3,11.2-15.3
		c34.2-48.1,67.9-96.5,96.7-148.2c13.6-24.4,24.9-49.7,30-77.4C639.5,218.2,635.6,194.6,634.8,190.3z"/>
	<path id="XMLID_3_" class="st1" d="M494.8,321.3c-63.2-0.4-112.3-46.6-112.6-114.7C382,143.7,432.3,92,493,91.2c1.3,0,2.5,0,3.8,0
		V73.1c-11.1,0.2-21.1,1.4-21.3,1.4c-3.3,0.7-6.6,1.4-9.9,2.1c-51.7,11.9-99.4,56.2-107.6,115.7c-0.1,1-0.3,2-0.4,3
		c-0.1,0.6-0.1,1.1-0.2,1.8c0,0.3-0.1,0.5-0.1,0.8c-0.1,0.5-0.1,1-0.2,1.5c-2.4,19.7,4.4,62,4.4,62l0,0c6.7,27,19.4,51.7,33.4,75.7
		c30,51.5,63.9,100.3,98.8,148.5c0.8,1.1,1.7,2.1,3.1,3.9c0,0,0,0,0-0.1V321.3C496.1,321.3,495.4,321.3,494.8,321.3z"/>
</g>
<path id="XMLID_11_" class="st2" d="M519.8,245.9c14.1-8.6,28.8,6.5,19.6,20.5c-0.6,0.8-1.3,1.6-2.1,2.1
	c-14.1,9.2-29.1-5.5-20.5-19.6C517.5,247.7,518.6,246.6,519.8,245.9z"/>
<path id="XMLID_9_" class="st2" d="M467.3,245.9c14.1-8.6,28.8,6.5,19.6,20.5c-0.6,0.8-1.3,1.6-2.1,2.1
	c-14.1,9.2-29.1-5.5-20.5-19.6C465,247.7,466.1,246.6,467.3,245.9z"/>
<path id="XMLID_7_" class="st2" d="M424.6,135.7c0,0,17.2,3,18.2,7c1.1,4,18.2,82.7,18.2,82.7s1.1,5.4,5.6,5.6
	c4.5,0.2,77.1,0,77.1,0s4.2-1.3,4.2-5.6s-5.6-5.6-5.6-5.6h-70.1c0,0-1,0.2-1.4-1.4c-0.4-1.6-1.4-8.4-1.4-8.4H548c0,0,3.4,0,4.2-2.8
	s5.6-37.9,5.6-37.9s0.9-4.6-4.2-5.6c-5.1-1-96.8-9.8-96.8-9.8l-2.8-15.4c0,0-1.4-5.8-7-7s-18.2-4.2-18.2-4.2s-6.3-0.6-7,4.2
	C421.1,136.4,424.6,135.7,424.6,135.7z"/>
<g id="XMLID_88_">
	<path id="XMLID_90_" class="st2" d="M839.1,183.6l-39.3,183.5h-41l40.5-188.4c-31.9,0-57,9.1-57,57.3c0,14.5,3.7,16.8,4,19.4
		c-19.7,0-30.5-7.1-30.5-27.6c0-37.9,26.8-74.1,97.2-74.1c11.7,0,45.3,4.8,73.2,4.8c13.1,0,25.1-1.1,32.8-4.3
		c-4,12-4.3,36.8-27.1,36.8C876.7,191,858.2,187,839.1,183.6z"/>
	<path id="XMLID_92_" class="st2" d="M907.8,346.6c14,0,37.9-16.5,47.9-37.6h12.8c-16.2,29.4-43.6,58.1-80.4,58.1
		c-27.4,0-42.2-20.8-42.2-45.3c0-36.2,15.4-99.7,67.3-99.7c23.4,0,36.5,9.7,36.5,29.6c0,34.8-37.3,54.7-64.4,58.1
		c-0.6,4.6-0.9,8.8-0.9,12.3C884.4,340.9,896.7,346.6,907.8,346.6z M922.6,237.2c-16,0-29.1,32.2-35.1,59c26.2-0.3,44.7-22.8,45-43
		C932.6,247.2,931.1,237.2,922.6,237.2z"/>
	<path id="XMLID_95_" class="st2" d="M1042,244.9c0-6.8-4.3-9.7-10.5-9.7c-23.9,0-39.3,46.5-39.3,77.2c0,16.8,3.4,30.5,20.8,30.5
		c20.2,0,36.5-12,49.6-26.8h9.7c-13.7,15.4-29.1,51-79.5,51c-23.7,0-39-13.1-39-46.7c0-41.6,18-96.6,73.2-96.6
		c15.4,0,31.3,4,31.3,19.7c0,3.1-0.3,5.7-1.4,9.4c-1.4-0.9-3.7-1.7-7.1-1.7c-2.6,0-5.4,0.6-9.1,1.7
		C1041.4,249.7,1042,247.2,1042,244.9z"/>
	<path id="XMLID_97_" class="st2" d="M1159.7,367.2c-20.2,0-29.1-13.4-29.1-31.3c0-4.6,0.6-9.4,1.7-14.3l10.8-51.3
		c0.3-2,0.6-4.3,0.6-6.6c0-9.1-4-17.7-12.8-17.7c-6.8,0-12.3,2-18,6.3l-24.5,114.9h-41l41.3-193.8l42.2-5.7l-15.4,72.4
		c11.7-8.5,24.8-15.4,37.3-15.4c16,0,32.8,17.4,32.8,36.2c0,2,0,4.3-0.6,6.3l-11.7,54.4c-0.9,3.7-2.3,8-2.3,11.7
		c0,4.8,2.3,8.5,10.8,8.5c2,0,5.1,0,7.4-0.9C1181.4,365.5,1169.4,367.2,1159.7,367.2z"/>
	<path id="XMLID_99_" class="st2" d="M1306.5,180.2l-20.2,95.2c28.5-2.3,49.9-39.9,49.9-70.1c0-21.1-10.3-38.8-35.3-38.8
		c-46.2,0-73.8,25.9-73.8,69.3c0,14.5,3.7,16.8,4,19.4c-19.7,0-30.5-7.1-30.5-27.6c0-37.9,52.4-74.1,100-74.1
		c46.7,0,67.3,26.8,67.3,56.1c0,36.2-31.1,76.4-82.4,76.4h-1.5l-17.4,81.2h-41l38.8-181.3L1306.5,180.2z"/>
	<path id="XMLID_101_" class="st2" d="M1469.5,263.7c1.7,1.7,4.3,2.6,8.3,2.6c13.4,0,19.4-9.7,29.9-14l1.1,6
		c-8.8,11.1-23.7,20.5-40.2,25.1c-5.4,57.3-36.5,85.5-65,85.5c-30.5,0-43.6-12.8-43.6-46.7c0-70.1,35.6-100.3,75-100.3
		C1462.1,221.8,1468.9,242.9,1469.5,263.7z M1447.5,286.2c-8.3,0-12-6-12-12.8c0-8.3,4.8-17.1,12.5-19.9c-0.9-9.4-4-14.8-12-14.8
		c-26.8,0-38.2,58.1-38.2,80.9c0,17.1,8,21.7,19.1,21.7C1434.4,341.2,1444.1,313.9,1447.5,286.2z"/>
	<path id="XMLID_104_" class="st2" d="M1540.4,224.7l-20.5,96.9c-0.6,3.1-1.1,6.3-1.1,8.8c0,6.3,2.9,10.8,14.3,10.8
		s26.2-16,37.6-25.1h9.7c-13.1,13.1-45.3,51-67.5,51c-21.9,0-35.6-9.7-35.6-31.1c0-4.3,0.6-9.1,1.7-14.5l20.5-96.9h40.9V224.7z
		 M1527.3,164.2c12.5,0,22.8,10.3,22.8,22.8s-10.3,22.5-22.8,22.5s-22.5-10-22.5-22.5S1514.8,164.2,1527.3,164.2z"/>
	<path id="XMLID_107_" class="st2" d="M1671,321.6c-0.9,3.1-1.4,6.3-1.4,9.1c0,6.3,3.1,10.5,14.3,10.5c11.4,0,15.7-8.8,27.1-18h9.7
		c-13.1,13.1-34.8,43.9-57,43.9s-35.3-9.7-35.3-31.1c0-4.6,0.6-9.1,1.7-14.5l10.8-51.3c0.6-2.6,0.9-5.1,0.9-7.4
		c0-10.3-5.4-16.8-13.1-16.8c-6.8,0-12,2-18,6l-24.2,115.1h-41l30.2-142.5h41l-3.4,15.4c11.7-8.5,24.8-15.4,37.3-15.4
		c15.4,0,32.8,16.5,32.8,35.6c0,2.3,0,4.6-0.6,6.8L1671,321.6z"/>
	<path id="XMLID_109_" class="st2" d="M1736.8,321.6c-0.9,3.4-1.4,6.8-1.4,10c0,6,2.3,10.3,10,10.3c2,0,5.1,0,7.4-0.9
		c-8,24.5-20.5,26.2-30.2,26.2c-19.9,0-28.5-13.1-28.5-30.8c0-4.6,0.6-9.7,1.7-14.8l18.2-85.5h-9.4l2.3-11.4h9.4l8.5-39.3l42.2-5.7
		c0,0-4.3,19.4-9.7,45h17.1l-2.3,11.4H1755L1736.8,321.6z"/>
</g>
</svg>
