<?xml version="1.0" encoding="utf-8"?>
<!-- Generator: Adobe Illustrator 19.0.0, SVG Export Plug-In . SVG Version: 6.00 Build 0)  -->
<svg version="1.1" id="Layer_1" xmlns="http://www.w3.org/2000/svg" xmlns:xlink="http://www.w3.org/1999/xlink" x="0px" y="0px"
	 viewBox="0 0 1543.4 541.5" style="enable-background:new 0 0 1543.4 541.5;" xml:space="preserve">
<style type="text/css">
	.st0{fill:url(#XMLID_90_);}
	.st1{fill:url(#XMLID_91_);}
	.st2{fill-rule:evenodd;clip-rule:evenodd;fill:#113163;}
	.st3{fill:#030F23;}
	.st4{font-family:'Lobster1.3';}
	.st5{font-size:284.9937px;}
</style>
<g id="XMLID_2_">
	<linearGradient id="XMLID_90_" gradientUnits="userSpaceOnUse" x1="67.7132" y1="212.9306" x2="490.3992" y2="389.2445">
		<stop  offset="0" style="stop-color:#0086BB"/>
		<stop  offset="1" style="stop-color:#3C0094"/>
	</linearGradient>
	<path id="XMLID_4_" class="st0" d="M363.1,155c-1-4.9-2-9.8-3.1-14.7C344,68.8,275.6,14,208.2,6.8c-0.1,0-0.2,0-0.3-0.1
		c-6.2-0.7-13.3-0.8-20.1-0.6v23c81.2,1.4,144.4,66.6,144.4,147.4c-2.2,89.7-66.1,144.2-144.4,144.9v213.5c5-6.8,9.7-13,14.2-19.4
		c43.4-61.1,86.3-122.6,122.8-188.2c17.3-31,31.7-63.2,38.1-98.3C369.1,190.3,364.1,160.4,363.1,155z"/>
	<linearGradient id="XMLID_91_" gradientUnits="userSpaceOnUse" x1="-28.6914" y1="201.5573" x2="141.113" y2="255.6246">
		<stop  offset="1.489367e-002" style="stop-color:#3FC1FF"/>
		<stop  offset="1" style="stop-color:#0086BB"/>
	</linearGradient>
	<path id="XMLID_3_" class="st1" d="M185.3,321.4c-80.3-0.5-142.7-59.2-143-145.7C42,95.7,105.9,30.1,183,29c1.6,0,3.2,0,4.8,0.1
		v-23c-14.1,0.3-26.8,1.8-27,1.8c-4.2,0.9-8.4,1.8-12.5,2.7C82.6,25.6,22,81.9,11.5,157.5c-0.2,1.3-0.4,2.6-0.5,3.8
		c-0.1,0.7-0.2,1.4-0.3,2.2c-0.1,0.3-0.1,0.7-0.2,1c-0.1,0.6-0.2,1.3-0.3,1.9c-3.1,25,5.6,78.8,5.6,78.8l0,0
		c8.6,34.3,24.7,65.6,42.4,96.1c38.1,65.4,81.1,127.4,125.5,188.6c1,1.4,2.2,2.7,3.9,4.9c0,0,0,0,0-0.1V321.3
		C187,321.4,186.1,321.4,185.3,321.4z"/>
</g>
<path id="XMLID_11_" class="st2" d="M217.1,225.6c17.9-10.9,36.6,8.2,24.9,26.1c-0.7,1.1-1.6,2-2.7,2.7c-17.9,11.7-37-7-26.1-24.9
	C214.2,227.8,215.6,226.5,217.1,225.6z"/>
<path id="XMLID_9_" class="st2" d="M150.4,225.6c17.9-10.9,36.6,8.2,24.9,26.1c-0.7,1.1-1.6,2-2.7,2.7c-17.9,11.7-37-7-26.1-24.9
	C147.5,227.8,148.8,226.5,150.4,225.6z"/>
<path id="XMLID_7_" class="st2" d="M96.1,85.6c0,0,21.8,3.8,23.2,8.9s23.2,105.1,23.2,105.1s1.4,6.9,7.1,7.1c5.7,0.3,98,0,98,0
	s5.3-1.6,5.3-7.1c0.1-5.5-7.1-7.1-7.1-7.1h-89.1c0,0-1.3,0.3-1.8-1.8s-1.8-10.7-1.8-10.7h99.8c0,0,4.3,0,5.3-3.6
	c1-3.5,7.1-48.1,7.1-48.1s1.1-5.8-5.3-7.1c-6.5-1.3-122.9-12.5-122.9-12.5l-3.6-19.6c0,0-1.7-7.3-8.9-8.9
	c-7.2-1.6-23.2-5.3-23.2-5.3s-8-0.8-8.9,5.3C91.7,86.4,96.1,85.6,96.1,85.6z"/>
<text id="XMLID_88_" transform="matrix(1 0 0 1 421.9804 356.6616)" class="st3 st4 st5">TechPoint</text>
</svg>
