<?xml version="1.0" encoding="utf-8"?>
<!-- Generator: Adobe Illustrator 19.0.0, SVG Export Plug-In . SVG Version: 6.00 Build 0)  -->
<svg version="1.1" id="Layer_1" xmlns="http://www.w3.org/2000/svg" xmlns:xlink="http://www.w3.org/1999/xlink" x="0px" y="0px"
	 viewBox="0 0 1543.4 541.5" style="enable-background:new 0 0 1543.4 541.5;" xml:space="preserve">
<style type="text/css">
	.st0{fill:#47A3E2;}
	.st1{fill:#0086BB;}
	.st2{fill-rule:evenodd;clip-rule:evenodd;fill:#113163;}
	.st3{fill:#1F5493;}
</style>
<g id="XMLID_2_">
	<path id="XMLID_4_" class="st0" d="M342.8,179.8c-0.8-3.9-1.6-7.7-2.4-11.6C327.7,112,273.8,68.8,220.8,63.1c-0.1,0-0.2,0-0.3,0
		c-4.9-0.5-10.5-0.6-15.8-0.5v18.1c63.9,1.1,113.7,52.4,113.7,116c-1.7,70.6-52,113.5-113.7,114v168.1c3.9-5.3,7.6-10.3,11.2-15.3
		c34.2-48.1,67.9-96.5,96.7-148.2c13.6-24.4,24.9-49.7,30-77.4C347.5,207.7,343.6,184.1,342.8,179.8z"/>
	<path id="XMLID_3_" class="st1" d="M202.8,310.8c-63.2-0.4-112.3-46.6-112.6-114.7C90,133.2,140.3,81.5,201,80.7c1.3,0,2.5,0,3.8,0
		V62.6c-11.1,0.2-21.1,1.4-21.3,1.4c-3.3,0.7-6.6,1.4-9.9,2.1C121.9,78,74.2,122.3,66,181.8c-0.1,1-0.3,2-0.4,3
		c-0.1,0.6-0.1,1.1-0.2,1.8c0,0.3-0.1,0.5-0.1,0.8c-0.1,0.5-0.1,1-0.2,1.5c-2.4,19.7,4.4,62,4.4,62l0,0c6.7,27,19.4,51.7,33.4,75.7
		c30,51.5,63.9,100.3,98.8,148.5c0.8,1.1,1.7,2.1,3.1,3.9c0,0,0,0,0-0.1V310.8C204.1,310.8,203.4,310.8,202.8,310.8z"/>
</g>
<path id="XMLID_11_" class="st2" d="M227.8,235.4c14.1-8.6,28.8,6.5,19.6,20.5c-0.6,0.8-1.3,1.6-2.1,2.1
	c-14.1,9.2-29.1-5.5-20.5-19.6C225.5,237.2,226.6,236.1,227.8,235.4z"/>
<path id="XMLID_9_" class="st2" d="M175.3,235.4c14.1-8.6,28.8,6.5,19.6,20.5c-0.6,0.8-1.3,1.6-2.1,2.1
	c-14.1,9.2-29.1-5.5-20.5-19.6C173,237.2,174.1,236.1,175.3,235.4z"/>
<path id="XMLID_7_" class="st2" d="M132.6,125.2c0,0,17.2,3,18.2,7c1.1,4,18.2,82.7,18.2,82.7s1.1,5.4,5.6,5.6
	c4.5,0.2,77.1,0,77.1,0s4.2-1.3,4.2-5.6c0-4.3-5.6-5.6-5.6-5.6h-70.1c0,0-1,0.2-1.4-1.4c-0.4-1.6-1.4-8.4-1.4-8.4H256
	c0,0,3.4,0,4.2-2.8c0.8-2.8,5.6-37.9,5.6-37.9s0.9-4.6-4.2-5.6c-5.1-1-96.8-9.8-96.8-9.8L162,128c0,0-1.4-5.8-7-7
	c-5.6-1.2-18.2-4.2-18.2-4.2s-6.3-0.6-7,4.2C129.1,125.9,132.6,125.2,132.6,125.2z"/>
<g id="XMLID_88_">
	<path id="XMLID_90_" class="st3" d="M547.1,173.1l-39.3,183.5h-41l40.5-188.4c-31.9,0-57,9.1-57,57.3c0,14.5,3.7,16.8,4,19.4
		c-19.7,0-30.5-7.1-30.5-27.6c0-37.9,26.8-74.1,97.2-74.1c11.7,0,45.3,4.8,73.2,4.8c13.1,0,25.1-1.1,32.8-4.3
		c-4,12-4.3,36.8-27.1,36.8C584.7,180.5,566.2,176.5,547.1,173.1z"/>
	<path id="XMLID_92_" class="st3" d="M615.8,336.1c14,0,37.9-16.5,47.9-37.6h12.8c-16.2,29.4-43.6,58.1-80.4,58.1
		c-27.4,0-42.2-20.8-42.2-45.3c0-36.2,15.4-99.7,67.3-99.7c23.4,0,36.5,9.7,36.5,29.6c0,34.8-37.3,54.7-64.4,58.1
		c-0.6,4.6-0.9,8.8-0.9,12.3C592.4,330.4,604.7,336.1,615.8,336.1z M630.6,226.7c-16,0-29.1,32.2-35.1,59c26.2-0.3,44.7-22.8,45-43
		C640.6,236.7,639.1,226.7,630.6,226.7z"/>
	<path id="XMLID_95_" class="st3" d="M750,234.4c0-6.8-4.3-9.7-10.5-9.7c-23.9,0-39.3,46.5-39.3,77.2c0,16.8,3.4,30.5,20.8,30.5
		c20.2,0,36.5-12,49.6-26.8h9.7c-13.7,15.4-29.1,51-79.5,51c-23.7,0-39-13.1-39-46.7c0-41.6,18-96.6,73.2-96.6
		c15.4,0,31.3,4,31.3,19.7c0,3.1-0.3,5.7-1.4,9.4c-1.4-0.9-3.7-1.7-7.1-1.7c-2.6,0-5.4,0.6-9.1,1.7C749.4,239.2,750,236.7,750,234.4
		z"/>
	<path id="XMLID_97_" class="st3" d="M867.7,356.7c-20.2,0-29.1-13.4-29.1-31.3c0-4.6,0.6-9.4,1.7-14.3l10.8-51.3
		c0.3-2,0.6-4.3,0.6-6.6c0-9.1-4-17.7-12.8-17.7c-6.8,0-12.3,2-18,6.3l-24.5,114.9h-41l41.3-193.8l42.2-5.7l-15.4,72.4
		c11.7-8.5,24.8-15.4,37.3-15.4c16,0,32.8,17.4,32.8,36.2c0,2,0,4.3-0.6,6.3l-11.7,54.4c-0.9,3.7-2.3,8-2.3,11.7
		c0,4.8,2.3,8.5,10.8,8.5c2,0,5.1,0,7.4-0.9C889.4,355,877.4,356.7,867.7,356.7z"/>
	<path id="XMLID_99_" class="st3" d="M1014.5,169.7l-20.2,95.2c28.5-2.3,49.9-39.9,49.9-70.1c0-21.1-10.3-38.8-35.3-38.8
		c-46.2,0-73.8,25.9-73.8,69.3c0,14.5,3.7,16.8,4,19.4c-19.7,0-30.5-7.1-30.5-27.6c0-37.9,52.4-74.1,100-74.1
		c46.7,0,67.3,26.8,67.3,56.1c0,36.2-31.1,76.4-82.4,76.4H992l-17.4,81.2h-41l38.8-181.3L1014.5,169.7z"/>
	<path id="XMLID_101_" class="st3" d="M1177.5,253.2c1.7,1.7,4.3,2.6,8.3,2.6c13.4,0,19.4-9.7,29.9-14l1.1,6
		c-8.8,11.1-23.7,20.5-40.2,25.1c-5.4,57.3-36.5,85.5-65,85.5c-30.5,0-43.6-12.8-43.6-46.7c0-70.1,35.6-100.3,75-100.3
		C1170.1,211.3,1176.9,232.4,1177.5,253.2z M1155.5,275.7c-8.3,0-12-6-12-12.8c0-8.3,4.8-17.1,12.5-19.9c-0.9-9.4-4-14.8-12-14.8
		c-26.8,0-38.2,58.1-38.2,80.9c0,17.1,8,21.7,19.1,21.7C1142.4,330.7,1152.1,303.4,1155.5,275.7z"/>
	<path id="XMLID_104_" class="st3" d="M1248.4,214.2l-20.5,96.9c-0.6,3.1-1.1,6.3-1.1,8.8c0,6.3,2.9,10.8,14.3,10.8
		s26.2-16,37.6-25.1h9.7c-13.1,13.1-45.3,51-67.5,51c-21.9,0-35.6-9.7-35.6-31.1c0-4.3,0.6-9.1,1.7-14.5l20.5-96.9H1248.4z
		 M1235.3,153.7c12.5,0,22.8,10.3,22.8,22.8s-10.3,22.5-22.8,22.5c-12.5,0-22.5-10-22.5-22.5S1222.8,153.7,1235.3,153.7z"/>
	<path id="XMLID_107_" class="st3" d="M1379,311.1c-0.9,3.1-1.4,6.3-1.4,9.1c0,6.3,3.1,10.5,14.3,10.5c11.4,0,15.7-8.8,27.1-18h9.7
		c-13.1,13.1-34.8,43.9-57,43.9c-22.2,0-35.3-9.7-35.3-31.1c0-4.6,0.6-9.1,1.7-14.5l10.8-51.3c0.6-2.6,0.9-5.1,0.9-7.4
		c0-10.3-5.4-16.8-13.1-16.8c-6.8,0-12,2-18,6l-24.2,115.1h-41l30.2-142.5h41l-3.4,15.4c11.7-8.5,24.8-15.4,37.3-15.4
		c15.4,0,32.8,16.5,32.8,35.6c0,2.3,0,4.6-0.6,6.8L1379,311.1z"/>
	<path id="XMLID_109_" class="st3" d="M1444.8,311.1c-0.9,3.4-1.4,6.8-1.4,10c0,6,2.3,10.3,10,10.3c2,0,5.1,0,7.4-0.9
		c-8,24.5-20.5,26.2-30.2,26.2c-19.9,0-28.5-13.1-28.5-30.8c0-4.6,0.6-9.7,1.7-14.8l18.2-85.5h-9.4l2.3-11.4h9.4l8.5-39.3l42.2-5.7
		c0,0-4.3,19.4-9.7,45h17.1l-2.3,11.4H1463L1444.8,311.1z"/>
</g>
</svg>
