<?xml version="1.0" encoding="utf-8"?>
<!-- Generator: Adobe Illustrator 19.0.0, SVG Export Plug-In . SVG Version: 6.00 Build 0)  -->
<svg version="1.1" id="Layer_1" xmlns="http://www.w3.org/2000/svg" xmlns:xlink="http://www.w3.org/1999/xlink" x="0px" y="0px"
	 viewBox="0 0 297 66.5" style="enable-background:new 0 0 297 66.5;" xml:space="preserve">
<style type="text/css">
	.st0{fill:#0F6F9F;}
	.st1{fill:#FFFFFF;}
	.st2{fill:#F1F2F2;}
</style>
<rect id="XMLID_30_" y="0" class="st0" width="160.5" height="66.5"/>
<g id="XMLID_1_">
	<path id="XMLID_2_" class="st1" d="M36.3,16.9v3.5H24v33.8h-9.7V20.5H2.2v-3.5H36.3z"/>
	<path id="XMLID_4_" class="st2" d="M51.7,50.7H71v3.5H41.6V16.9h28.6v3.5H51.7v12.9h16.1v3.5H51.7V50.7z"/>
	<path id="XMLID_6_" class="st1" d="M110.7,30.1H101v-7.7c0-0.8-0.1-1.3-0.4-1.5c-0.2-0.2-0.7-0.3-1.5-0.3h-9.7
		c-0.8,0-1.3,0.1-1.5,0.3c-0.2,0.2-0.4,0.7-0.4,1.5v26.5c0,0.8,0.1,1.3,0.4,1.5c0.2,0.2,0.7,0.3,1.5,0.3h9.7c0.8,0,1.3-0.1,1.5-0.3
		c0.2-0.2,0.4-0.7,0.4-1.5v-7.7h9.7v8.3c0,3.2-1.6,4.7-4.7,4.7H82.6c-3.2,0-4.7-1.6-4.7-4.7V21.7c0-3.2,1.6-4.7,4.7-4.7H106
		c3.2,0,4.7,1.6,4.7,4.7V30.1z"/>
	<path id="XMLID_8_" class="st1" d="M144.9,16.9h9.7v37.3h-9.7V37.3h-16.4v16.9h-9.7V16.9h9.7v16.9h16.4V16.9z"/>
	<path id="XMLID_10_" d="M182.7,49.4v-5.1c0-0.7-0.1-1.2-0.3-1.4c-0.2-0.2-0.7-0.3-1.4-0.3h-12.7c-2.9,0-4.3-1.4-4.3-4.3v-6.3
		c0-2.9,1.4-4.3,4.3-4.3h14.6c2.9,0,4.3,1.4,4.3,4.3v2.9h-4.6v-2.3c0-0.7-0.1-1.2-0.3-1.4c-0.2-0.2-0.7-0.3-1.4-0.3h-10.6
		c-0.7,0-1.2,0.1-1.4,0.3c-0.2,0.2-0.3,0.7-0.3,1.4v5.2c0,0.7,0.1,1.2,0.3,1.4c0.2,0.2,0.7,0.3,1.4,0.3H183c2.9,0,4.3,1.4,4.3,4.3
		v6.2c0,2.9-1.4,4.3-4.3,4.3h-14.6c-2.9,0-4.3-1.4-4.3-4.3V47h4.7v2.3c0,0.7,0.1,1.2,0.3,1.4c0.2,0.2,0.7,0.3,1.4,0.3H181
		c0.7,0,1.2-0.1,1.4-0.3C182.6,50.5,182.7,50.1,182.7,49.4z"/>
	<path id="XMLID_12_" d="M209.2,30.8h-6.7V49c0,0.7,0.1,1.2,0.3,1.4c0.2,0.2,0.7,0.3,1.4,0.3h5v3.5h-7c-2.9,0-4.3-1.4-4.3-4.3V30.8
		h-4.3v-3.2h4.3V23h4.7v4.6h6.7V30.8z"/>
	<path id="XMLID_14_" d="M220.1,27.6h16.6c2.9,0,4.3,1.4,4.3,4.3v18c0,2.9-1.4,4.3-4.3,4.3h-16.6c-2.9,0-4.3-1.4-4.3-4.3v-18
		C215.8,29,217.2,27.6,220.1,27.6z M236.4,49.3V32.5c0-0.7-0.1-1.2-0.3-1.4c-0.2-0.2-0.7-0.3-1.4-0.3h-12.5c-0.7,0-1.2,0.1-1.4,0.3
		c-0.2,0.2-0.3,0.7-0.3,1.4v16.8c0,0.7,0.1,1.2,0.3,1.4c0.2,0.2,0.7,0.3,1.4,0.3h12.5c0.7,0,1.2-0.1,1.4-0.3
		C236.3,50.5,236.4,50,236.4,49.3z"/>
	<path id="XMLID_17_" d="M259.4,27.6h5.7v3.4h-6.4c-2.4,0-3.6,1.4-3.6,4.1v19.2h-4.7V27.6h4.7v3.4C255.7,28.7,257.2,27.6,259.4,27.6
		z"/>
	<path id="XMLID_19_" d="M274.4,27.6h17c2.9,0,4.3,1.4,4.3,4.3v10.3h-21v7.1c0,0.7,0.1,1.2,0.3,1.4c0.2,0.2,0.7,0.3,1.4,0.3h12.7
		c0.7,0,1.2-0.1,1.4-0.3c0.2-0.2,0.3-0.7,0.3-1.4v-2.6h4.7v3.2c0,2.9-1.4,4.3-4.3,4.3h-16.8c-2.9,0-4.3-1.4-4.3-4.3v-18
		C270.1,29,271.5,27.6,274.4,27.6z M274.8,39h16.3v-6.4c0-0.7-0.1-1.2-0.3-1.4c-0.2-0.2-0.7-0.3-1.4-0.3h-12.9
		c-0.7,0-1.2,0.1-1.4,0.3c-0.2,0.2-0.3,0.7-0.3,1.4V39z"/>
</g>
</svg>
